<mxfile host="65bd71144e">
    <diagram id="ColnkmWLGrDem0W-RFfc" name="Page-1">
        <mxGraphModel dx="711" dy="615" grid="1" gridSize="10" guides="1" tooltips="1" connect="1" arrows="1" fold="1" page="1" pageScale="1" pageWidth="1169" pageHeight="827" math="0" shadow="0">
            <root>
                <mxCell id="0"/>
                <mxCell id="1" parent="0"/>
                <mxCell id="38" value="" style="shape=rect;fillColor=#333333;strokeColor=none;" parent="1" vertex="1">
                    <mxGeometry x="20" y="40" width="658" height="410" as="geometry"/>
                </mxCell>
                <mxCell id="39" value="Blockchain" style="text;html=1;strokeColor=none;fillColor=none;align=center;verticalAlign=middle;whiteSpace=wrap;rounded=0;fontColor=#B3B3B3;" parent="1" vertex="1">
                    <mxGeometry x="21" y="150" width="89" height="30" as="geometry"/>
                </mxCell>
                <mxCell id="40" value="&lt;h1&gt;AI &amp;amp; IoT engineer HK&lt;/h1&gt;&lt;p&gt;Make any&amp;nbsp; of your assets with AI/IoT enabled&lt;/p&gt;" style="text;html=1;strokeColor=none;fillColor=none;spacing=5;spacingTop=-20;whiteSpace=wrap;overflow=hidden;rounded=0;fontColor=#B3B3B3;" parent="1" vertex="1">
                    <mxGeometry x="390" y="360" width="270" height="70" as="geometry"/>
                </mxCell>
                <mxCell id="41" value="AIoT Projects" style="text;html=1;strokeColor=none;fillColor=none;align=center;verticalAlign=middle;whiteSpace=wrap;rounded=0;fontColor=#B3B3B3;" parent="1" vertex="1">
                    <mxGeometry x="21" y="80" width="100" height="40" as="geometry"/>
                </mxCell>
                <mxCell id="42" value="AI Projects" style="text;html=1;strokeColor=none;fillColor=none;align=center;verticalAlign=middle;whiteSpace=wrap;rounded=0;fontColor=#B3B3B3;" parent="1" vertex="1">
                    <mxGeometry x="20" y="50" width="90" height="30" as="geometry"/>
                </mxCell>
                <mxCell id="45" value="" style="shape=rect;fillColor=#333333;strokeColor=none;" parent="1" vertex="1">
                    <mxGeometry x="20" y="480" width="658" height="410" as="geometry"/>
                </mxCell>
                <mxCell id="46" value="&lt;h1&gt;AI &amp;amp; IoT engineer HK&lt;/h1&gt;&lt;p&gt;Make any&amp;nbsp; of your assets with AI/IoT enabled&lt;/p&gt;" style="text;html=1;strokeColor=none;fillColor=none;spacing=5;spacingTop=-20;whiteSpace=wrap;overflow=hidden;rounded=0;fontColor=#B3B3B3;" parent="1" vertex="1">
                    <mxGeometry x="370" y="810" width="270" height="70" as="geometry"/>
                </mxCell>
                <mxCell id="47" value="&lt;h1&gt;Profile&lt;/h1&gt;&lt;p&gt;&lt;span&gt;Skills:&lt;/span&gt;&lt;br&gt;&lt;/p&gt;&lt;p&gt;&lt;br&gt;&lt;/p&gt;&lt;p&gt;Profiles:&lt;/p&gt;&lt;p&gt;&lt;br&gt;&lt;/p&gt;&lt;p&gt;Website&lt;/p&gt;" style="text;html=1;strokeColor=none;fillColor=none;spacing=5;spacingTop=-20;whiteSpace=wrap;overflow=hidden;rounded=0;fontColor=#B3B3B3;" parent="1" vertex="1">
                    <mxGeometry x="40" y="510" width="600" height="280" as="geometry"/>
                </mxCell>
                <mxCell id="51" value="AI Fintech" style="text;html=1;strokeColor=none;fillColor=none;align=center;verticalAlign=middle;whiteSpace=wrap;rounded=0;fontColor=#B3B3B3;" parent="1" vertex="1">
                    <mxGeometry x="15" y="110" width="100" height="40" as="geometry"/>
                </mxCell>
                <mxCell id="53" value="Contact" style="text;html=1;strokeColor=none;fillColor=none;align=center;verticalAlign=middle;whiteSpace=wrap;rounded=0;fontColor=#B3B3B3;" parent="1" vertex="1">
                    <mxGeometry x="620" y="50" width="40" height="20" as="geometry"/>
                </mxCell>
                <mxCell id="55" value="Contact" style="text;html=1;strokeColor=none;fillColor=none;align=center;verticalAlign=middle;whiteSpace=wrap;rounded=0;fontColor=#B3B3B3;" parent="1" vertex="1">
                    <mxGeometry x="620" y="480" width="40" height="20" as="geometry"/>
                </mxCell>
                <mxCell id="57" value="" style="shape=rect;fillColor=#333333;strokeColor=none;" parent="1" vertex="1">
                    <mxGeometry x="720" y="40" width="658" height="410" as="geometry"/>
                </mxCell>
                <mxCell id="58" value="&lt;h1&gt;AI &amp;amp; IoT engineer HK&lt;/h1&gt;&lt;p&gt;Make any&amp;nbsp; of your assets with AI/IoT enabled&lt;/p&gt;" style="text;html=1;strokeColor=none;fillColor=none;spacing=5;spacingTop=-20;whiteSpace=wrap;overflow=hidden;rounded=0;fontColor=#B3B3B3;" parent="1" vertex="1">
                    <mxGeometry x="1100" y="360" width="270" height="70" as="geometry"/>
                </mxCell>
                <mxCell id="59" value="Contact" style="text;html=1;strokeColor=none;fillColor=none;align=center;verticalAlign=middle;whiteSpace=wrap;rounded=0;fontColor=#B3B3B3;" parent="1" vertex="1">
                    <mxGeometry x="1330" y="50" width="40" height="20" as="geometry"/>
                </mxCell>
                <mxCell id="60" value="&lt;h1&gt;AI Projects&lt;/h1&gt;&lt;p&gt;ML/DL Ops from feature engineering to model deployment to endpoints.&lt;/p&gt;" style="text;html=1;strokeColor=none;fillColor=none;spacing=5;spacingTop=-20;whiteSpace=wrap;overflow=hidden;rounded=0;fontColor=#B3B3B3;" parent="1" vertex="1">
                    <mxGeometry x="730" y="60" width="640" height="90" as="geometry"/>
                </mxCell>
                <mxCell id="88" value="" style="shape=rect;fillColor=#ffffff;strokeColor=#eeeeee;shadow=1;" parent="1" vertex="1">
                    <mxGeometry x="730" y="140" width="180" height="220" as="geometry"/>
                </mxCell>
                <mxCell id="89" value="Word of the Day" style="text;fontColor=#999999;fontSize=13;fontStyle=0;verticalAlign=bottom;spacingBottom=2;spacingLeft=16;resizeWidth=1;" parent="88" vertex="1">
                    <mxGeometry width="180" height="40" relative="1" as="geometry"/>
                </mxCell>
                <mxCell id="90" value="be·nev·o·lent" style="text;fontColor=#444444;fontSize=22;fontStyle=0;verticalAlign=bottom;spacingBottom=2;spacingLeft=16;resizeWidth=1;" parent="88" vertex="1">
                    <mxGeometry width="180" height="40" relative="1" as="geometry">
                        <mxPoint y="44" as="offset"/>
                    </mxGeometry>
                </mxCell>
                <mxCell id="91" value="adjective" style="text;fontColor=#999999;fontSize=13;fontStyle=0;verticalAlign=bottom;spacingBottom=2;spacingLeft=16;resizeWidth=1;" parent="88" vertex="1">
                    <mxGeometry width="180" height="30" relative="1" as="geometry">
                        <mxPoint y="80" as="offset"/>
                    </mxGeometry>
                </mxCell>
                <mxCell id="92" value="well meaning and kindly&#10;&quot;a benevolent smile&quot;" style="text;fontColor=#444444;fontSize=13;fontStyle=0;verticalAlign=middle;spacingBottom=2;spacingLeft=16;resizeWidth=1;" parent="88" vertex="1">
                    <mxGeometry width="180" height="40" relative="1" as="geometry">
                        <mxPoint y="130" as="offset"/>
                    </mxGeometry>
                </mxCell>
                <mxCell id="93" value="LEARN MORE" style="text;fontColor=#444444;fontSize=14;fontStyle=1;verticalAlign=middle;spacingBottom=2;spacingLeft=16;resizeWidth=1;" parent="88" vertex="1">
                    <mxGeometry y="1" width="180" height="48" relative="1" as="geometry">
                        <mxPoint y="-48" as="offset"/>
                    </mxGeometry>
                </mxCell>
                <mxCell id="94" value="" style="shape=rect;fillColor=#ffffff;strokeColor=#eeeeee;shadow=1;" parent="1" vertex="1">
                    <mxGeometry x="920" y="140" width="190" height="220" as="geometry"/>
                </mxCell>
                <mxCell id="95" value="Word of the Day" style="text;fontColor=#999999;fontSize=13;fontStyle=0;verticalAlign=bottom;spacingBottom=2;spacingLeft=16;resizeWidth=1;" parent="94" vertex="1">
                    <mxGeometry width="190" height="40" relative="1" as="geometry"/>
                </mxCell>
                <mxCell id="96" value="be·nev·o·lent" style="text;fontColor=#444444;fontSize=22;fontStyle=0;verticalAlign=bottom;spacingBottom=2;spacingLeft=16;resizeWidth=1;" parent="94" vertex="1">
                    <mxGeometry width="190" height="40" relative="1" as="geometry">
                        <mxPoint y="44" as="offset"/>
                    </mxGeometry>
                </mxCell>
                <mxCell id="97" value="adjective" style="text;fontColor=#999999;fontSize=13;fontStyle=0;verticalAlign=bottom;spacingBottom=2;spacingLeft=16;resizeWidth=1;" parent="94" vertex="1">
                    <mxGeometry width="190" height="30" relative="1" as="geometry">
                        <mxPoint y="80" as="offset"/>
                    </mxGeometry>
                </mxCell>
                <mxCell id="98" value="well meaning and kindly&#10;&quot;a benevolent smile&quot;" style="text;fontColor=#444444;fontSize=13;fontStyle=0;verticalAlign=middle;spacingBottom=2;spacingLeft=16;resizeWidth=1;" parent="94" vertex="1">
                    <mxGeometry width="190" height="40" relative="1" as="geometry">
                        <mxPoint y="130" as="offset"/>
                    </mxGeometry>
                </mxCell>
                <mxCell id="99" value="LEARN MORE" style="text;fontColor=#444444;fontSize=14;fontStyle=1;verticalAlign=middle;spacingBottom=2;spacingLeft=16;resizeWidth=1;" parent="94" vertex="1">
                    <mxGeometry y="1" width="190" height="48" relative="1" as="geometry">
                        <mxPoint y="-48" as="offset"/>
                    </mxGeometry>
                </mxCell>
                <mxCell id="100" value="" style="shape=rect;fillColor=#ffffff;strokeColor=#eeeeee;shadow=1;" parent="1" vertex="1">
                    <mxGeometry x="1120" y="140" width="190" height="220" as="geometry"/>
                </mxCell>
                <mxCell id="101" value="Word of the Day" style="text;fontColor=#999999;fontSize=13;fontStyle=0;verticalAlign=bottom;spacingBottom=2;spacingLeft=16;resizeWidth=1;" parent="100" vertex="1">
                    <mxGeometry width="190" height="40" relative="1" as="geometry"/>
                </mxCell>
                <mxCell id="102" value="be·nev·o·lent" style="text;fontColor=#444444;fontSize=22;fontStyle=0;verticalAlign=bottom;spacingBottom=2;spacingLeft=16;resizeWidth=1;" parent="100" vertex="1">
                    <mxGeometry width="190" height="40" relative="1" as="geometry">
                        <mxPoint y="44" as="offset"/>
                    </mxGeometry>
                </mxCell>
                <mxCell id="103" value="adjective" style="text;fontColor=#999999;fontSize=13;fontStyle=0;verticalAlign=bottom;spacingBottom=2;spacingLeft=16;resizeWidth=1;" parent="100" vertex="1">
                    <mxGeometry width="190" height="30" relative="1" as="geometry">
                        <mxPoint y="80" as="offset"/>
                    </mxGeometry>
                </mxCell>
                <mxCell id="104" value="well meaning and kindly&#10;&quot;a benevolent smile&quot;" style="text;fontColor=#444444;fontSize=13;fontStyle=0;verticalAlign=middle;spacingBottom=2;spacingLeft=16;resizeWidth=1;" parent="100" vertex="1">
                    <mxGeometry width="190" height="40" relative="1" as="geometry">
                        <mxPoint y="130" as="offset"/>
                    </mxGeometry>
                </mxCell>
                <mxCell id="105" value="LEARN MORE" style="text;fontColor=#444444;fontSize=14;fontStyle=1;verticalAlign=middle;spacingBottom=2;spacingLeft=16;resizeWidth=1;" parent="100" vertex="1">
                    <mxGeometry y="1" width="190" height="48" relative="1" as="geometry">
                        <mxPoint y="-48" as="offset"/>
                    </mxGeometry>
                </mxCell>
                <mxCell id="107" value="" style="dashed=0;verticalLabelPosition=bottom;verticalAlign=top;align=center;shape=mxgraph.gmdl.sliderFocused;barPos=50;strokeColor=#3F51B5;opacity=100;strokeWidth=2;fillColor=#3F51B5;handleSize=30;shadow=0;rotation=90;" parent="1" vertex="1">
                    <mxGeometry x="1225" y="235" width="210" height="30" as="geometry"/>
                </mxCell>
                <mxCell id="108" value="" style="shape=rect;fillColor=#333333;strokeColor=none;" vertex="1" parent="1">
                    <mxGeometry x="721" y="480" width="658" height="410" as="geometry"/>
                </mxCell>
                <mxCell id="109" value="&lt;h1&gt;AI &amp;amp; IoT engineer HK&lt;/h1&gt;&lt;p&gt;Make any&amp;nbsp; of your assets with AI/IoT enabled&lt;/p&gt;" style="text;html=1;strokeColor=none;fillColor=none;spacing=5;spacingTop=-20;whiteSpace=wrap;overflow=hidden;rounded=0;fontColor=#B3B3B3;" vertex="1" parent="1">
                    <mxGeometry x="1071" y="810" width="270" height="70" as="geometry"/>
                </mxCell>
                <mxCell id="110" value="Subject" style="text;fontColor=#808080;fontSize=16;verticalAlign=middle;strokeColor=none;fillColor=none;" vertex="1" parent="1">
                    <mxGeometry x="764" y="580" width="346" height="30" as="geometry"/>
                </mxCell>
                <mxCell id="111" value="" style="dashed=0;shape=line;strokeWidth=1;noLabel=1;strokeColor=#cccccc;opacity=50;" vertex="1" parent="1">
                    <mxGeometry x="764" y="610" width="566" height="10" as="geometry"/>
                </mxCell>
                <mxCell id="112" value="Youre Message" style="text;fontColor=#cccccc;fontSize=12;verticalAlign=middle;strokeColor=none;fillColor=none;" vertex="1" parent="1">
                    <mxGeometry x="764" y="640" width="346" height="30" as="geometry"/>
                </mxCell>
                <mxCell id="113" value="Input text" style="text;fontSize=16;verticalAlign=middle;strokeColor=none;fillColor=none;" vertex="1" parent="1">
                    <mxGeometry x="764" y="660" width="346" height="30" as="geometry"/>
                </mxCell>
                <mxCell id="114" value="" style="dashed=0;shape=line;strokeWidth=2;noLabel=1;strokeColor=#eeeeee;" vertex="1" parent="1">
                    <mxGeometry x="764" y="685" width="566" height="10" as="geometry"/>
                </mxCell>
                <mxCell id="115" value="From:" style="text;fontColor=#808080;fontSize=16;verticalAlign=middle;strokeColor=none;fillColor=none;" vertex="1" parent="1">
                    <mxGeometry x="764" y="520" width="346" height="30" as="geometry"/>
                </mxCell>
                <mxCell id="116" value="" style="dashed=0;shape=line;strokeWidth=1;noLabel=1;strokeColor=#cccccc;opacity=50;" vertex="1" parent="1">
                    <mxGeometry x="764" y="550" width="566" height="10" as="geometry"/>
                </mxCell>
                <mxCell id="118" value="Send" style="dashed=0;align=center;fontSize=12;shape=rect;fillColor=#cccccc;opacity=25;strokeColor=none;fontStyle=1;fontColor=#ffffff;shadow=0;" vertex="1" parent="1">
                    <mxGeometry x="770" y="810" width="100" height="36" as="geometry"/>
                </mxCell>
                <mxCell id="120" value="Cancel" style="dashed=0;align=center;fontSize=12;shape=rect;fillColor=#cccccc;opacity=25;strokeColor=none;fontStyle=1;fontColor=#ffffff;shadow=0;" vertex="1" parent="1">
                    <mxGeometry x="887" y="810" width="100" height="36" as="geometry"/>
                </mxCell>
            </root>
        </mxGraphModel>
    </diagram>
</mxfile>